<?xml version="1.0" encoding="utf-8"?>
<svg version="1.1" id="codeopera" xmlns="http://www.w3.org/2000/svg" xmlns:xlink="http://www.w3.org/1999/xlink" x="0px" y="0px"
     viewBox="0 0 113 56.075" style="enable-background:new 0 0 113 56.075;" xml:space="preserve">
<style type="text/css">
    .st0{fill:#D80909;}
    .st1{fill:#011E46;}
</style>
<path id="opera" class="st0" d="M28.682,29.458c-2.94,0-5.382,0.966-7.326,2.898c-1.944,1.933-2.916,4.302-2.916,7.11
    c0,2.808,0.972,5.172,2.916,7.092s4.386,2.88,7.326,2.88c2.939,0,5.382-0.96,7.326-2.88c1.944-1.92,2.916-4.284,2.916-7.092
    c0-2.809-0.972-5.178-2.916-7.11C34.064,30.424,31.622,29.458,28.682,29.458z M32.138,43.335c-0.9,0.997-2.052,1.494-3.456,1.494
    c-1.404,0-2.556-0.497-3.456-1.494c-0.9-0.995-1.35-2.285-1.35-3.869s0.45-2.881,1.35-3.889s2.052-1.512,3.456-1.512
    c1.404,0,2.556,0.504,3.456,1.512c0.9,1.008,1.35,2.305,1.35,3.889S33.038,42.34,32.138,43.335z M110.769,31.221
    c-1.488-1.175-3.585-1.764-5.938-1.764c-1.273,0-5.877-0.011-6.831,0v4.317c0,0,5.411,0.003,6.347,0.003
    c2.184,0,3.653,1.032,3.653,3.096v0.202h-4.432c-2.496,0-4.464,0.446-5.904,1.429c-1.439,0.984-2.16,2.443-2.16,4.423
    c0,1.98,0.696,3.553,2.088,4.74c1.392,1.188,3.152,1.776,5.204,1.776c2.053,0,4.204-0.882,5.204-2.634v2.265h5V36.802
    C113,34.258,112.256,32.397,110.769,31.221z M108,41.77c0,0.984-0.584,1.771-1.316,2.357c-0.732,0.589-1.687,0.883-2.647,0.883
    s-1.752-0.186-2.268-0.559c-0.516-0.371-0.801-0.784-0.801-1.481c0-1.344,1.053-1.896,3.213-1.896H108V41.77z M96,33.777
    c0,0-0.997-0.042-1.812,0.232c-0.814,0.274-2.009,0.903-2.801,2.043C90.596,37.192,90,38.89,90,40.762v8.313h-5v-19h5v2.263
    c0.871-1.188,1.497-1.659,2.541-2.212c1.044-0.552,2.359-0.649,3.439-0.673 M79.998,31.87c-1.86-1.608-4.228-2.412-6.892-2.412
    s-5.027,0.9-6.983,2.7s-2.961,4.225-2.961,7.272s0.947,5.478,2.868,7.29c1.919,1.813,4.343,2.718,7.283,2.718
    c2.939,0,5.498-1.031,7.682-3.096l-3.026-3.276c-1.224,1.272-2.785,1.908-4.681,1.908c-1.176,0-2.232-0.485-3.168-1.157
    c-0.936-0.672-1.489-1.742-1.657-2.742H83v-2.582C83,35.686,81.857,33.478,79.998,31.87z M68.607,37.075
    c0.144-1,0.659-1.757,1.548-2.405c0.888-0.648,1.865-0.86,2.934-0.86s1.975,0.144,2.719,0.768c0.743,0.624,1.175,1.497,1.296,2.497
    H68.607z M52.088,29.458c-2.257,0-4.088,0.828-6.088,2.484v-1.867h-5v26h5v-9.481c2,1.896,3.562,2.844,5.926,2.844
    c2.363,0,4.538-0.96,6.301-2.88c1.765-1.92,2.701-4.308,2.701-7.164c0-2.855-0.964-5.226-2.729-7.11
    C56.436,30.399,54.344,29.458,52.088,29.458z M54.144,43.335c-0.937,0.997-2.028,1.494-3.276,1.494s-2.31-0.497-3.186-1.494
    c-0.877-0.995-1.314-2.279-1.314-3.852c0-1.571,0.438-2.88,1.314-3.924c0.876-1.044,1.949-1.566,3.222-1.566
    c1.271,0,2.363,0.528,3.276,1.584c0.911,1.057,1.368,2.364,1.368,3.924C55.548,41.062,55.079,42.34,54.144,43.335z"/>
<path id="code" class="st1" d="M38.928,17.028c0,2.808-0.972,5.172-2.916,7.092c-1.944,1.92-4.386,2.88-7.326,2.88
    c-2.94,0-5.382-0.959-7.326-2.88c-1.944-1.92-2.916-4.284-2.916-7.092s0.972-5.178,2.916-7.11c1.944-1.932,4.386-2.898,7.326-2.898
    c2.939,0,5.382,0.966,7.326,2.898C37.957,11.85,38.928,14.22,38.928,17.028z M23.88,17.028c0,1.584,0.45,2.875,1.35,3.87
    c0.9,0.996,2.052,1.494,3.456,1.494c1.404,0,2.556-0.498,3.456-1.494c0.9-0.996,1.35-2.286,1.35-3.87s-0.45-2.88-1.35-3.888
    c-0.9-1.008-2.052-1.512-3.456-1.512c-1.404,0-2.556,0.504-3.456,1.512C24.331,14.148,23.88,15.444,23.88,17.028z M49.883,27
    c-2.293,0-4.339-0.972-6.139-2.916c-1.8-1.944-2.7-4.356-2.7-7.236c0-2.88,0.876-5.238,2.628-7.074
    c1.751-1.836,3.803-2.754,6.156-2.754c2.352,0,4.271,0.828,5.76,2.484V0h5.4v26.712h-5.4v-2.556C54.076,26.052,52.174,27,49.883,27z
     M46.48,17.064c0,1.561,0.467,2.838,1.404,3.834c0.936,0.996,2.027,1.494,3.275,1.494s2.309-0.498,3.186-1.494
    c0.877-0.996,1.314-2.28,1.314-3.852c0-1.572-0.438-2.88-1.314-3.924s-1.949-1.566-3.223-1.566c-1.271,0-2.363,0.528-3.275,1.584
    S46.48,15.504,46.48,17.064z M80.995,23.904C78.811,25.968,76.249,27,73.31,27c-2.94,0-5.371-0.906-7.29-2.718
    c-1.921-1.812-2.881-4.242-2.881-7.29c0-3.047,0.979-5.472,2.935-7.272c1.956-1.8,4.266-2.7,6.93-2.7s4.926,0.804,6.786,2.412
    c1.859,1.608,2.79,3.816,2.79,6.624v2.88H68.467c0.168,1.056,0.721,1.92,1.656,2.592c0.937,0.672,1.992,1.008,3.168,1.008
    c1.896,0,3.456-0.636,4.68-1.908L80.995,23.904z M75.812,12.42c-0.744-0.624-1.65-0.936-2.719-0.936s-2.046,0.324-2.934,0.972
    c-0.889,0.648-1.404,1.524-1.548,2.628h8.496C76.986,13.932,76.555,13.044,75.812,12.42z M16.014,21.953
    c-0.316-0.768-0.55-1.568-0.705-2.391l-0.044-0.05c-1.44,1.8-3.06,2.7-4.86,2.7c-1.368,0-2.563-0.456-3.582-1.368
    c-1.021-0.912-1.53-2.189-1.53-3.834c0-1.644,0.51-2.928,1.53-3.852c1.02-0.923,2.237-1.386,3.654-1.386
    c0.888,0,1.782,0.204,2.682,0.612c0.884,0.401,1.633,0.966,2.251,1.691c0.151-0.675,0.343-1.338,0.604-1.974
    c0.357-0.874,0.83-1.694,1.383-2.465c-0.872-0.737-1.841-1.322-2.906-1.752c-1.428-0.576-2.838-0.864-4.23-0.864
    c-2.785,0-5.19,0.93-7.218,2.79C1.014,11.67,0,14.082,0,17.046c0,2.964,1.002,5.364,3.006,7.2S7.464,27,10.368,27
    c2.443,0,4.741-0.93,6.896-2.765C16.766,23.518,16.343,22.757,16.014,21.953z"/>
</svg>
