<svg width="77" height="48" viewBox="0 0 77 48" fill="none" xmlns="http://www.w3.org/2000/svg">
<path d="M0 22.77H14.688V18.234H5.292V1.16999H0V22.77ZM1.332 21.762V2.17799H3.96V19.242L1.332 21.762Z" fill="#302699"/>
<path d="M0 22.77H14.688V18.234H5.292V1.16999H0V22.77ZM1.332 21.762V2.17799H3.96V19.242L1.332 21.762Z" fill="#AF47D5" fill-opacity="0.3"/>
<path d="M17.2266 22.77H22.5186V1.16999H17.2266V22.77ZM18.5586 21.762V14.058H21.1866V21.762H18.5586Z" fill="#302699"/>
<path d="M17.2266 22.77H22.5186V1.16999H17.2266V22.77ZM18.5586 21.762V14.058H21.1866V21.762H18.5586Z" fill="#AF47D5" fill-opacity="0.3"/>
<path d="M29.7965 22.77H35.1245V5.84999H40.0205V1.16999H24.9725V5.84999H29.7965V22.77ZM31.0565 21.762V5.84999H33.8285V21.762H31.0565Z" fill="#302699"/>
<path d="M29.7965 22.77H35.1245V5.84999H40.0205V1.16999H24.9725V5.84999H29.7965V22.77ZM31.0565 21.762V5.84999H33.8285V21.762H31.0565Z" fill="#AF47D5" fill-opacity="0.3"/>
<path d="M38.0824 22.77H43.7704L44.8144 20.538H53.3464L54.4264 22.77H60.1144L49.5304 0.449987H48.5944L38.0824 22.77ZM46.4704 16.758L48.9904 11.286H49.0624L51.5464 16.758H46.4704ZM52.9864 16.758H55.9024L58.2784 21.762H55.2904L52.9864 16.758ZM39.8824 21.762L42.2584 16.758H45.1744L42.8344 21.762H39.8824Z" fill="#302699"/>
<path d="M38.0824 22.77H43.7704L44.8144 20.538H53.3464L54.4264 22.77H60.1144L49.5304 0.449987H48.5944L38.0824 22.77ZM46.4704 16.758L48.9904 11.286H49.0624L51.5464 16.758H46.4704ZM52.9864 16.758H55.9024L58.2784 21.762H55.2904L52.9864 16.758ZM39.8824 21.762L42.2584 16.758H45.1744L42.8344 21.762H39.8824Z" fill="#AF47D5" fill-opacity="0.3"/>
<path d="M61.5912 16.434C61.5912 20.322 64.2552 23.49 68.9712 23.49C73.0392 23.49 76.2792 20.322 76.2792 16.506C76.2792 13.122 74.4792 10.962 70.6272 9.80999C68.7912 9.26999 66.8112 8.98199 66.8112 7.36199C66.8112 5.95799 67.9272 5.27399 69.0792 5.27399C70.5552 5.27399 71.3112 6.28199 71.3112 7.50599H76.2792C75.9912 3.50999 73.7232 0.449987 68.9352 0.449987C64.8672 0.449987 61.5912 3.61799 61.5912 7.43399C61.5912 11.142 63.6072 12.834 67.2432 14.13C69.0072 14.742 71.1312 15.21 71.1312 16.83C71.1312 17.946 70.3032 18.702 68.9712 18.702C67.7472 18.702 66.7392 17.694 66.7392 16.434H61.5912ZM72.2832 6.49799C71.9592 5.59799 71.2032 4.26599 68.9712 4.26599V1.45799C73.1832 1.45799 74.7672 4.37399 74.9832 6.49799H72.2832ZM62.8512 17.442H65.6592C65.9832 18.63 67.1352 19.674 68.9712 19.71V22.482C65.5512 22.482 62.9232 20.142 62.8512 17.442Z" fill="#302699"/>
<path d="M61.5912 16.434C61.5912 20.322 64.2552 23.49 68.9712 23.49C73.0392 23.49 76.2792 20.322 76.2792 16.506C76.2792 13.122 74.4792 10.962 70.6272 9.80999C68.7912 9.26999 66.8112 8.98199 66.8112 7.36199C66.8112 5.95799 67.9272 5.27399 69.0792 5.27399C70.5552 5.27399 71.3112 6.28199 71.3112 7.50599H76.2792C75.9912 3.50999 73.7232 0.449987 68.9352 0.449987C64.8672 0.449987 61.5912 3.61799 61.5912 7.43399C61.5912 11.142 63.6072 12.834 67.2432 14.13C69.0072 14.742 71.1312 15.21 71.1312 16.83C71.1312 17.946 70.3032 18.702 68.9712 18.702C67.7472 18.702 66.7392 17.694 66.7392 16.434H61.5912ZM72.2832 6.49799C71.9592 5.59799 71.2032 4.26599 68.9712 4.26599V1.45799C73.1832 1.45799 74.7672 4.37399 74.9832 6.49799H72.2832ZM62.8512 17.442H65.6592C65.9832 18.63 67.1352 19.674 68.9712 19.71V22.482C65.5512 22.482 62.9232 20.142 62.8512 17.442Z" fill="#AF47D5" fill-opacity="0.3"/>
<path d="M7 30.2504H8.14531V33.2225L10.9754 30.2504H12.2438L9.91533 32.7871L12.4994 37.0086H11.2026L9.11077 33.5254L8.14531 34.5003V37.0086H7V30.2504Z" fill="#302699"/>
<path d="M7 30.2504H8.14531V33.2225L10.9754 30.2504H12.2438L9.91533 32.7871L12.4994 37.0086H11.2026L9.11077 33.5254L8.14531 34.5003V37.0086H7V30.2504Z" fill="#AF47D5" fill-opacity="0.3"/>
<path d="M19.448 33.3739C19.7067 33.3739 19.9212 33.3487 20.0916 33.2982C20.262 33.2414 20.3945 33.1657 20.4892 33.0711C20.5901 32.9701 20.6595 32.8502 20.6974 32.7114C20.7416 32.5725 20.7637 32.4179 20.7637 32.2476C20.7637 32.0898 20.7384 31.9478 20.6879 31.8216C20.6438 31.6891 20.5649 31.5787 20.4513 31.4903C20.344 31.3957 20.1989 31.3231 20.0159 31.2726C19.8329 31.2222 19.6057 31.1969 19.3344 31.1969H18.1796V33.3739H19.448ZM19.3628 30.2504C19.8739 30.2504 20.2935 30.3103 20.6217 30.4302C20.9561 30.5501 21.218 30.7079 21.4073 30.9035C21.6029 31.0928 21.7386 31.3042 21.8143 31.5377C21.89 31.7711 21.9279 32.0015 21.9279 32.2286C21.9279 32.6704 21.8395 33.0395 21.6629 33.3361C21.4925 33.6327 21.2148 33.8725 20.8299 34.0554L22.2308 37.0086H20.9814L19.7698 34.3205C19.713 34.3268 19.6531 34.3331 19.5899 34.3394C19.5268 34.3394 19.4606 34.3394 19.3912 34.3394H18.1796V37.0086H17.0532V30.2504H19.3628Z" fill="#302699"/>
<path d="M19.448 33.3739C19.7067 33.3739 19.9212 33.3487 20.0916 33.2982C20.262 33.2414 20.3945 33.1657 20.4892 33.0711C20.5901 32.9701 20.6595 32.8502 20.6974 32.7114C20.7416 32.5725 20.7637 32.4179 20.7637 32.2476C20.7637 32.0898 20.7384 31.9478 20.6879 31.8216C20.6438 31.6891 20.5649 31.5787 20.4513 31.4903C20.344 31.3957 20.1989 31.3231 20.0159 31.2726C19.8329 31.2222 19.6057 31.1969 19.3344 31.1969H18.1796V33.3739H19.448ZM19.3628 30.2504C19.8739 30.2504 20.2935 30.3103 20.6217 30.4302C20.9561 30.5501 21.218 30.7079 21.4073 30.9035C21.6029 31.0928 21.7386 31.3042 21.8143 31.5377C21.89 31.7711 21.9279 32.0015 21.9279 32.2286C21.9279 32.6704 21.8395 33.0395 21.6629 33.3361C21.4925 33.6327 21.2148 33.8725 20.8299 34.0554L22.2308 37.0086H20.9814L19.7698 34.3205C19.713 34.3268 19.6531 34.3331 19.5899 34.3394C19.5268 34.3394 19.4606 34.3394 19.3912 34.3394H18.1796V37.0086H17.0532V30.2504H19.3628Z" fill="#AF47D5" fill-opacity="0.3"/>
<path d="M26.9216 30.2504H31.4176V31.2348H28.0669V33.0332H31.2283V34.0271H28.0669V36.0242H31.5975L31.465 37.0086H26.9216V30.2504Z" fill="#302699"/>
<path d="M26.9216 30.2504H31.4176V31.2348H28.0669V33.0332H31.2283V34.0271H28.0669V36.0242H31.5975L31.465 37.0086H26.9216V30.2504Z" fill="#AF47D5" fill-opacity="0.3"/>
<path d="M38.7192 36.0337C39.1167 36.0337 39.4543 35.9769 39.732 35.8633C40.0159 35.7497 40.2463 35.5857 40.423 35.3711C40.606 35.1566 40.7385 34.901 40.8205 34.6044C40.9025 34.3079 40.9436 33.9734 40.9436 33.6011C40.9436 32.8565 40.7858 32.276 40.4703 31.8595C40.1548 31.4367 39.6373 31.2253 38.918 31.2253H37.6117V36.0337H38.7192ZM38.9085 30.2504C39.407 30.2504 39.855 30.3198 40.2526 30.4586C40.6501 30.5911 40.9877 30.7962 41.2654 31.0739C41.543 31.3515 41.7544 31.7017 41.8996 32.1245C42.051 32.541 42.1267 33.03 42.1267 33.5916C42.1267 34.1533 42.0478 34.6486 41.8901 35.0777C41.7323 35.5005 41.5052 35.857 41.2086 36.1473C40.912 36.4312 40.5492 36.6458 40.1201 36.7909C39.6973 36.9361 39.2177 37.0086 38.6813 37.0086H36.4664V30.2504H38.9085Z" fill="#302699"/>
<path d="M38.7192 36.0337C39.1167 36.0337 39.4543 35.9769 39.732 35.8633C40.0159 35.7497 40.2463 35.5857 40.423 35.3711C40.606 35.1566 40.7385 34.901 40.8205 34.6044C40.9025 34.3079 40.9436 33.9734 40.9436 33.6011C40.9436 32.8565 40.7858 32.276 40.4703 31.8595C40.1548 31.4367 39.6373 31.2253 38.918 31.2253H37.6117V36.0337H38.7192ZM38.9085 30.2504C39.407 30.2504 39.855 30.3198 40.2526 30.4586C40.6501 30.5911 40.9877 30.7962 41.2654 31.0739C41.543 31.3515 41.7544 31.7017 41.8996 32.1245C42.051 32.541 42.1267 33.03 42.1267 33.5916C42.1267 34.1533 42.0478 34.6486 41.8901 35.0777C41.7323 35.5005 41.5052 35.857 41.2086 36.1473C40.912 36.4312 40.5492 36.6458 40.1201 36.7909C39.6973 36.9361 39.2177 37.0086 38.6813 37.0086H36.4664V30.2504H38.9085Z" fill="#AF47D5" fill-opacity="0.3"/>
<path d="M47.1205 30.2504H48.2658V37.0086H47.1205V30.2504Z" fill="#302699"/>
<path d="M47.1205 30.2504H48.2658V37.0086H47.1205V30.2504Z" fill="#AF47D5" fill-opacity="0.3"/>
<path d="M55.0852 31.2442H52.9461V30.2504H58.3602V31.2442H56.2305V37.0086H55.0852V31.2442Z" fill="#302699"/>
<path d="M55.0852 31.2442H52.9461V30.2504H58.3602V31.2442H56.2305V37.0086H55.0852V31.2442Z" fill="#AF47D5" fill-opacity="0.3"/>
<path d="M65.6599 37.179C65.174 37.179 64.7354 37.1001 64.3442 36.9424C63.9593 36.7783 63.628 36.5448 63.3503 36.2419C63.0727 35.9391 62.8581 35.5699 62.7067 35.1345C62.5616 34.6928 62.489 34.1943 62.489 33.639C62.489 33.0837 62.5647 32.5852 62.7162 32.1435C62.8676 31.7017 63.0821 31.3294 63.3598 31.0265C63.6374 30.7173 63.9719 30.4839 64.3631 30.3261C64.7544 30.162 65.1866 30.08 65.6599 30.08C66.1395 30.08 66.5749 30.162 66.9661 30.3261C67.3573 30.4839 67.6886 30.7142 67.96 31.0171C68.2313 31.32 68.4395 31.6923 68.5847 32.134C68.7361 32.5694 68.8118 33.0647 68.8118 33.62C68.8118 34.1817 68.7393 34.6833 68.5941 35.125C68.449 35.5604 68.2408 35.9327 67.9694 36.2419C67.6981 36.5448 67.3668 36.7783 66.9756 36.9424C66.5906 37.1001 66.1521 37.179 65.6599 37.179ZM65.6504 36.1946C66.3004 36.1946 66.7926 35.9674 67.127 35.5131C67.4614 35.0525 67.6287 34.4246 67.6287 33.6295C67.6287 33.232 67.5845 32.8754 67.4962 32.5599C67.4141 32.2444 67.2911 31.9762 67.127 31.7554C66.9629 31.5345 66.7579 31.3641 66.5118 31.2442C66.2657 31.1243 65.9785 31.0644 65.6504 31.0644C65.3223 31.0644 65.0352 31.1243 64.7891 31.2442C64.543 31.3641 64.3347 31.5345 64.1644 31.7554C64.0003 31.9762 63.8772 32.2444 63.7952 32.5599C63.7132 32.8754 63.6721 33.232 63.6721 33.6295C63.6721 34.4246 63.8362 35.0525 64.1644 35.5131C64.4988 35.9674 64.9941 36.1946 65.6504 36.1946Z" fill="#302699"/>
<path d="M65.6599 37.179C65.174 37.179 64.7354 37.1001 64.3442 36.9424C63.9593 36.7783 63.628 36.5448 63.3503 36.2419C63.0727 35.9391 62.8581 35.5699 62.7067 35.1345C62.5616 34.6928 62.489 34.1943 62.489 33.639C62.489 33.0837 62.5647 32.5852 62.7162 32.1435C62.8676 31.7017 63.0821 31.3294 63.3598 31.0265C63.6374 30.7173 63.9719 30.4839 64.3631 30.3261C64.7544 30.162 65.1866 30.08 65.6599 30.08C66.1395 30.08 66.5749 30.162 66.9661 30.3261C67.3573 30.4839 67.6886 30.7142 67.96 31.0171C68.2313 31.32 68.4395 31.6923 68.5847 32.134C68.7361 32.5694 68.8118 33.0647 68.8118 33.62C68.8118 34.1817 68.7393 34.6833 68.5941 35.125C68.449 35.5604 68.2408 35.9327 67.9694 36.2419C67.6981 36.5448 67.3668 36.7783 66.9756 36.9424C66.5906 37.1001 66.1521 37.179 65.6599 37.179ZM65.6504 36.1946C66.3004 36.1946 66.7926 35.9674 67.127 35.5131C67.4614 35.0525 67.6287 34.4246 67.6287 33.6295C67.6287 33.232 67.5845 32.8754 67.4962 32.5599C67.4141 32.2444 67.2911 31.9762 67.127 31.7554C66.9629 31.5345 66.7579 31.3641 66.5118 31.2442C66.2657 31.1243 65.9785 31.0644 65.6504 31.0644C65.3223 31.0644 65.0352 31.1243 64.7891 31.2442C64.543 31.3641 64.3347 31.5345 64.1644 31.7554C64.0003 31.9762 63.8772 32.2444 63.7952 32.5599C63.7132 32.8754 63.6721 33.232 63.6721 33.6295C63.6721 34.4246 63.8362 35.0525 64.1644 35.5131C64.4988 35.9674 64.9941 36.1946 65.6504 36.1946Z" fill="#AF47D5" fill-opacity="0.3"/>
<path d="M17.9925 41.0679V45.1191C17.9925 45.7564 18.1061 46.2328 18.3333 46.5484C18.5668 46.8576 18.958 47.0122 19.507 47.0122C20.0497 47.0122 20.4314 46.8576 20.6523 46.5484C20.8795 46.2328 20.993 45.7564 20.993 45.1191V41.0679H22.1383V45.1191C22.1383 45.6428 22.0752 46.0877 21.949 46.4537C21.8228 46.8134 21.643 47.11 21.4095 47.3434C21.176 47.5706 20.8984 47.7347 20.5766 47.8356C20.2547 47.9429 19.8951 47.9966 19.4975 47.9966C18.633 47.9966 17.9767 47.7662 17.5287 47.3056C17.0807 46.8386 16.8567 46.1003 16.8567 45.0907V41.0679H17.9925Z" fill="#302699"/>
<path d="M17.9925 41.0679V45.1191C17.9925 45.7564 18.1061 46.2328 18.3333 46.5484C18.5668 46.8576 18.958 47.0122 19.507 47.0122C20.0497 47.0122 20.4314 46.8576 20.6523 46.5484C20.8795 46.2328 20.993 45.7564 20.993 45.1191V41.0679H22.1383V45.1191C22.1383 45.6428 22.0752 46.0877 21.949 46.4537C21.8228 46.8134 21.643 47.11 21.4095 47.3434C21.176 47.5706 20.8984 47.7347 20.5766 47.8356C20.2547 47.9429 19.8951 47.9966 19.4975 47.9966C18.633 47.9966 17.9767 47.7662 17.5287 47.3056C17.0807 46.8386 16.8567 46.1003 16.8567 45.0907V41.0679H17.9925Z" fill="#AF47D5" fill-opacity="0.3"/>
<path d="M27.2636 41.0679H28.3237L31.4284 45.952V41.0679H32.5453V47.8262H31.4852L28.3711 42.961V47.8262H27.2636V41.0679Z" fill="#302699"/>
<path d="M27.2636 41.0679H28.3237L31.4284 45.952V41.0679H32.5453V47.8262H31.4852L28.3711 42.961V47.8262H27.2636V41.0679Z" fill="#AF47D5" fill-opacity="0.3"/>
<path d="M37.7698 41.0679H38.9151V47.8262H37.7698V41.0679Z" fill="#302699"/>
<path d="M37.7698 41.0679H38.9151V47.8262H37.7698V41.0679Z" fill="#AF47D5" fill-opacity="0.3"/>
<path d="M44.8258 45.6491C44.8511 45.8574 44.8889 46.0467 44.9394 46.2171C44.9962 46.3811 45.0751 46.5231 45.176 46.643C45.2833 46.7566 45.4158 46.8481 45.5736 46.9175C45.7377 46.9806 45.9396 47.0122 46.1794 47.0122C46.64 47.0122 46.9681 46.8796 47.1638 46.6146C47.3594 46.3496 47.4572 45.971 47.4572 45.4788V41.0679H48.6025V45.5545C48.6025 46.3622 48.3848 46.9711 47.9494 47.3813C47.5203 47.7915 46.9366 47.9966 46.1983 47.9966C45.4221 47.9966 44.8227 47.8072 44.3999 47.4286C43.9771 47.05 43.7373 46.4569 43.6805 45.6491H44.8258Z" fill="#302699"/>
<path d="M44.8258 45.6491C44.8511 45.8574 44.8889 46.0467 44.9394 46.2171C44.9962 46.3811 45.0751 46.5231 45.176 46.643C45.2833 46.7566 45.4158 46.8481 45.5736 46.9175C45.7377 46.9806 45.9396 47.0122 46.1794 47.0122C46.64 47.0122 46.9681 46.8796 47.1638 46.6146C47.3594 46.3496 47.4572 45.971 47.4572 45.4788V41.0679H48.6025V45.5545C48.6025 46.3622 48.3848 46.9711 47.9494 47.3813C47.5203 47.7915 46.9366 47.9966 46.1983 47.9966C45.4221 47.9966 44.8227 47.8072 44.3999 47.4286C43.9771 47.05 43.7373 46.4569 43.6805 45.6491H44.8258Z" fill="#AF47D5" fill-opacity="0.3"/>
<path d="M55.5373 41.0679H56.6732L59.2478 47.8262H58.0267L57.3926 46.1035H54.7707L54.1459 47.8262H52.9628L55.5373 41.0679ZM57.0802 45.1475L56.0769 42.3647L55.083 45.1475H57.0802Z" fill="#302699"/>
<path d="M55.5373 41.0679H56.6732L59.2478 47.8262H58.0267L57.3926 46.1035H54.7707L54.1459 47.8262H52.9628L55.5373 41.0679ZM57.0802 45.1475L56.0769 42.3647L55.083 45.1475H57.0802Z" fill="#AF47D5" fill-opacity="0.3"/>
</svg>
